<svg xmlns="http://www.w3.org/2000/svg" xmlns:xlink="http://www.w3.org/1999/xlink" width="411" zoomAndPan="magnify" viewBox="0 0 308.25 209.999996" height="280" preserveAspectRatio="xMidYMid meet" version="1.0"><defs><g/><clipPath id="e51cdb9f65"><path d="M 75.164062 75.511719 L 133.75 75.511719 L 133.75 134 L 75.164062 134 Z M 75.164062 75.511719 " clip-rule="nonzero"/></clipPath></defs><g clip-path="url(#e51cdb9f65)"><path fill="#bf3636" d="M 97.132812 75.691406 C 95.125 75.691406 93.472656 77.347656 93.472656 79.355469 L 93.472656 81.796875 L 78.726562 81.796875 C 76.761719 81.796875 75.164062 83.378906 75.164062 85.324219 L 75.164062 122.207031 C 75.164062 124.152344 76.761719 125.734375 78.726562 125.734375 L 107.824219 125.734375 L 108.933594 124.628906 C 108.679688 124.195312 108.472656 123.746094 108.261719 123.292969 L 78.726562 123.292969 C 78.105469 123.292969 77.605469 122.808594 77.605469 122.207031 L 77.605469 107.222656 C 77.957031 107.347656 78.335938 107.425781 78.726562 107.425781 L 110.65625 107.425781 C 111.488281 106.5 112.429688 105.675781 113.464844 104.984375 L 78.726562 104.984375 C 78.105469 104.984375 77.605469 104.4375 77.605469 103.765625 L 77.605469 85.324219 C 77.605469 84.722656 78.105469 84.238281 78.726562 84.238281 L 94.488281 84.238281 C 94.621094 84.261719 94.753906 84.261719 94.882812 84.238281 L 111.574219 84.238281 C 111.707031 84.261719 111.84375 84.261719 111.972656 84.238281 L 127.746094 84.238281 C 128.367188 84.238281 128.867188 84.722656 128.867188 85.324219 L 128.867188 104.53125 C 129.738281 105.042969 130.558594 105.632812 131.308594 106.304688 L 131.308594 85.324219 C 131.308594 83.378906 129.710938 81.796875 127.746094 81.796875 L 113 81.796875 L 113 79.355469 C 113 77.347656 111.347656 75.691406 109.339844 75.691406 Z M 97.132812 78.132812 L 109.339844 78.132812 C 110.027344 78.132812 110.558594 78.667969 110.558594 79.355469 L 110.558594 81.796875 L 95.914062 81.796875 L 95.914062 79.355469 C 95.914062 78.667969 96.449219 78.132812 97.132812 78.132812 Z M 103.238281 97.664062 C 101.886719 97.664062 100.796875 98.753906 100.796875 100.105469 C 100.796875 101.453125 101.886719 102.542969 103.238281 102.542969 C 104.585938 102.542969 105.675781 101.453125 105.675781 100.105469 C 105.675781 98.753906 104.585938 97.664062 103.238281 97.664062 Z M 121.542969 104.984375 C 114.816406 104.984375 109.339844 110.464844 109.339844 117.191406 C 109.339844 120.117188 110.378906 122.800781 112.105469 124.910156 L 104.816406 132.195312 L 106.539062 133.921875 L 113.824219 126.632812 C 115.933594 128.355469 118.617188 129.394531 121.542969 129.394531 C 128.273438 129.394531 133.75 123.917969 133.75 117.191406 C 133.75 110.464844 128.273438 104.984375 121.542969 104.984375 Z M 121.542969 107.425781 C 126.949219 107.425781 131.308594 111.785156 131.308594 117.191406 C 131.308594 122.597656 126.949219 126.957031 121.542969 126.957031 C 116.136719 126.957031 111.78125 122.597656 111.78125 117.191406 C 111.78125 111.785156 116.136719 107.425781 121.542969 107.425781 Z M 121.542969 107.425781 " fill-opacity="1" fill-rule="nonzero"/></g><g fill="#ffffff" fill-opacity="1"><g transform="translate(138.899671, 96.081166)"><g><path d="M 7.703125 0.21875 C 5.179688 0.21875 3.328125 -0.296875 2.140625 -1.328125 C 1.085938 -2.242188 0.5625 -3.492188 0.5625 -5.078125 C 0.5625 -6.660156 1.085938 -7.910156 2.140625 -8.828125 C 3.328125 -9.859375 5.179688 -10.375 7.703125 -10.375 C 9.171875 -10.375 10.390625 -10.203125 11.359375 -9.859375 C 12.328125 -9.523438 13.078125 -9.066406 13.609375 -8.484375 C 14.140625 -7.898438 14.492188 -7.226562 14.671875 -6.46875 L 10.1875 -6.46875 C 9.726562 -7.257812 8.898438 -7.65625 7.703125 -7.65625 C 6.671875 -7.65625 5.910156 -7.359375 5.421875 -6.765625 C 5.035156 -6.285156 4.84375 -5.722656 4.84375 -5.078125 C 4.84375 -4.429688 5.035156 -3.875 5.421875 -3.40625 C 5.910156 -2.800781 6.671875 -2.5 7.703125 -2.5 C 8.898438 -2.5 9.726562 -2.898438 10.1875 -3.703125 L 14.671875 -3.703125 C 14.492188 -2.929688 14.140625 -2.253906 13.609375 -1.671875 C 13.078125 -1.085938 12.328125 -0.625 11.359375 -0.28125 C 10.390625 0.0507812 9.171875 0.21875 7.703125 0.21875 Z M 7.703125 0.21875 "/></g></g></g><g fill="#ffffff" fill-opacity="1"><g transform="translate(154.127984, 96.081166)"><g><path d="M 17.09375 0 L 12.765625 0 L 11.8125 -1.671875 L 5.390625 -1.671875 L 4.4375 0 L 0.109375 0 L 6.625 -10.171875 L 10.59375 -10.171875 Z M 10.375 -4.1875 L 8.609375 -7.265625 L 6.828125 -4.1875 Z M 10.375 -4.1875 "/></g></g></g><g fill="#ffffff" fill-opacity="1"><g transform="translate(171.320097, 96.081166)"><g><path d="M 15.03125 0 L 11 0 C 10.8125 -0.257812 10.679688 -0.585938 10.609375 -0.984375 C 10.546875 -1.285156 10.445312 -1.582031 10.3125 -1.875 C 10.175781 -2.175781 9.945312 -2.425781 9.625 -2.625 C 9.300781 -2.820312 8.820312 -2.925781 8.1875 -2.9375 L 5.40625 -2.9375 L 5.40625 0 L 1.140625 0 L 1.140625 -10.1875 L 8.078125 -10.1875 C 9.742188 -10.1875 11.082031 -10.0625 12.09375 -9.8125 C 13.113281 -9.5625 13.859375 -9.171875 14.328125 -8.640625 C 14.796875 -8.109375 15.03125 -7.414062 15.03125 -6.5625 C 15.03125 -5.84375 14.867188 -5.238281 14.546875 -4.75 C 14.222656 -4.257812 13.710938 -3.875 13.015625 -3.59375 C 13.691406 -3.3125 14.128906 -2.976562 14.328125 -2.59375 C 14.523438 -2.207031 14.648438 -1.78125 14.703125 -1.3125 C 14.742188 -0.894531 14.851562 -0.457031 15.03125 0 Z M 5.40625 -5.453125 L 7.84375 -5.453125 C 8.53125 -5.453125 9.066406 -5.484375 9.453125 -5.546875 C 9.847656 -5.609375 10.140625 -5.691406 10.328125 -5.796875 C 10.515625 -5.898438 10.632812 -6.015625 10.6875 -6.140625 C 10.738281 -6.273438 10.765625 -6.414062 10.765625 -6.5625 C 10.765625 -6.695312 10.738281 -6.828125 10.6875 -6.953125 C 10.632812 -7.085938 10.515625 -7.207031 10.328125 -7.3125 C 10.140625 -7.425781 9.847656 -7.507812 9.453125 -7.5625 C 9.066406 -7.625 8.53125 -7.65625 7.84375 -7.65625 L 5.40625 -7.65625 Z M 5.40625 -5.453125 "/></g></g></g><g fill="#bf3636" fill-opacity="1"><g transform="translate(186.900067, 96.081166)"><g><path d="M 13.390625 0 L 1.140625 0 L 1.140625 -10.1875 L 12.828125 -10.1875 L 12.828125 -7.65625 L 5.40625 -7.65625 L 5.40625 -6.0625 L 11.6875 -6.0625 L 11.6875 -4.109375 L 5.40625 -4.109375 L 5.40625 -2.515625 L 13.390625 -2.515625 Z M 13.390625 0 "/></g></g></g><g fill="#bf3636" fill-opacity="1"><g transform="translate(200.852264, 96.081166)"><g><path d="M 13.390625 0 L 1.140625 0 L 1.140625 -10.1875 L 12.828125 -10.1875 L 12.828125 -7.65625 L 5.40625 -7.65625 L 5.40625 -6.0625 L 11.6875 -6.0625 L 11.6875 -4.109375 L 5.40625 -4.109375 L 5.40625 -2.515625 L 13.390625 -2.515625 Z M 13.390625 0 "/></g></g></g><g fill="#ffffff" fill-opacity="1"><g transform="translate(214.793137, 96.081166)"><g><path d="M 15.03125 0 L 11 0 C 10.8125 -0.257812 10.679688 -0.585938 10.609375 -0.984375 C 10.546875 -1.285156 10.445312 -1.582031 10.3125 -1.875 C 10.175781 -2.175781 9.945312 -2.425781 9.625 -2.625 C 9.300781 -2.820312 8.820312 -2.925781 8.1875 -2.9375 L 5.40625 -2.9375 L 5.40625 0 L 1.140625 0 L 1.140625 -10.1875 L 8.078125 -10.1875 C 9.742188 -10.1875 11.082031 -10.0625 12.09375 -9.8125 C 13.113281 -9.5625 13.859375 -9.171875 14.328125 -8.640625 C 14.796875 -8.109375 15.03125 -7.414062 15.03125 -6.5625 C 15.03125 -5.84375 14.867188 -5.238281 14.546875 -4.75 C 14.222656 -4.257812 13.710938 -3.875 13.015625 -3.59375 C 13.691406 -3.3125 14.128906 -2.976562 14.328125 -2.59375 C 14.523438 -2.207031 14.648438 -1.78125 14.703125 -1.3125 C 14.742188 -0.894531 14.851562 -0.457031 15.03125 0 Z M 5.40625 -5.453125 L 7.84375 -5.453125 C 8.53125 -5.453125 9.066406 -5.484375 9.453125 -5.546875 C 9.847656 -5.609375 10.140625 -5.691406 10.328125 -5.796875 C 10.515625 -5.898438 10.632812 -6.015625 10.6875 -6.140625 C 10.738281 -6.273438 10.765625 -6.414062 10.765625 -6.5625 C 10.765625 -6.695312 10.738281 -6.828125 10.6875 -6.953125 C 10.632812 -7.085938 10.515625 -7.207031 10.328125 -7.3125 C 10.140625 -7.425781 9.847656 -7.507812 9.453125 -7.5625 C 9.066406 -7.625 8.53125 -7.65625 7.84375 -7.65625 L 5.40625 -7.65625 Z M 5.40625 -5.453125 "/></g></g></g><g fill="#000000" fill-opacity="1"><g transform="translate(230.376315, 96.081166)"><g/></g></g><g fill="#bf3636" fill-opacity="1"><g transform="translate(138.899671, 112.541117)"><g><path d="M 13.390625 0 L 1.140625 0 L 1.140625 -10.1875 L 12.828125 -10.1875 L 12.828125 -7.65625 L 5.40625 -7.65625 L 5.40625 -6.0625 L 11.6875 -6.0625 L 11.6875 -4.109375 L 5.40625 -4.109375 L 5.40625 -2.515625 L 13.390625 -2.515625 Z M 13.390625 0 "/></g></g></g><g fill="#ffffff" fill-opacity="1"><g transform="translate(152.846206, 112.541117)"><g><path d="M 14.671875 0 L 10.34375 0 L 7.390625 -3.125 L 4.4375 0 L 0.109375 0 L 5.40625 -5.203125 L 0.109375 -10.171875 L 4.4375 -10.171875 L 7.390625 -7.265625 L 10.34375 -10.171875 L 14.671875 -10.171875 L 9.375 -5.203125 Z M 14.671875 0 "/></g></g></g><g fill="#ffffff" fill-opacity="1"><g transform="translate(167.6137, 112.541117)"><g><path d="M 5.40625 0 L 1.140625 0 L 1.140625 -10.1875 L 8.078125 -10.1875 C 9.742188 -10.1875 11.082031 -10.0625 12.09375 -9.8125 C 13.113281 -9.5625 13.859375 -9.171875 14.328125 -8.640625 C 14.796875 -8.109375 15.03125 -7.414062 15.03125 -6.5625 C 15.03125 -5.707031 14.796875 -5.015625 14.328125 -4.484375 C 13.859375 -3.953125 13.113281 -3.5625 12.09375 -3.3125 C 11.082031 -3.0625 9.742188 -2.9375 8.078125 -2.9375 L 5.40625 -2.9375 Z M 5.40625 -5.453125 L 7.84375 -5.453125 C 8.53125 -5.453125 9.066406 -5.476562 9.453125 -5.53125 C 9.847656 -5.59375 10.140625 -5.671875 10.328125 -5.765625 C 10.515625 -5.867188 10.632812 -5.988281 10.6875 -6.125 C 10.738281 -6.257812 10.765625 -6.40625 10.765625 -6.5625 C 10.765625 -6.71875 10.738281 -6.863281 10.6875 -7 C 10.632812 -7.132812 10.515625 -7.25 10.328125 -7.34375 C 10.140625 -7.445312 9.847656 -7.523438 9.453125 -7.578125 C 9.066406 -7.628906 8.53125 -7.65625 7.84375 -7.65625 L 5.40625 -7.65625 Z M 5.40625 -5.453125 "/></g></g></g><g fill="#ffffff" fill-opacity="1"><g transform="translate(183.203579, 112.541117)"><g><path d="M 7.703125 0.21875 C 5.179688 0.21875 3.328125 -0.296875 2.140625 -1.328125 C 1.085938 -2.242188 0.5625 -3.5 0.5625 -5.09375 C 0.5625 -6.664062 1.085938 -7.910156 2.140625 -8.828125 C 3.328125 -9.867188 5.179688 -10.390625 7.703125 -10.390625 C 10.210938 -10.390625 12.0625 -9.867188 13.25 -8.828125 C 14.300781 -7.910156 14.828125 -6.664062 14.828125 -5.09375 C 14.828125 -3.5 14.300781 -2.242188 13.25 -1.328125 C 12.0625 -0.296875 10.210938 0.21875 7.703125 0.21875 Z M 7.703125 -2.515625 C 8.734375 -2.515625 9.488281 -2.8125 9.96875 -3.40625 C 10.351562 -3.875 10.546875 -4.4375 10.546875 -5.09375 C 10.546875 -5.738281 10.351562 -6.296875 9.96875 -6.765625 C 9.488281 -7.359375 8.734375 -7.65625 7.703125 -7.65625 C 6.671875 -7.65625 5.910156 -7.359375 5.421875 -6.765625 C 5.035156 -6.296875 4.84375 -5.738281 4.84375 -5.09375 C 4.84375 -4.4375 5.035156 -3.875 5.421875 -3.40625 C 5.910156 -2.8125 6.671875 -2.515625 7.703125 -2.515625 Z M 7.703125 -2.515625 "/></g></g></g><g fill="#bf3636" fill-opacity="1"><g transform="translate(138.899671, 124.158948)"><g><path d="M 7.796875 0 L 0.875 0 L 0.875 -6.21875 L 7.796875 -6.21875 L 7.796875 -5.234375 L 1.859375 -5.234375 L 1.859375 -3.609375 L 7.09375 -3.609375 L 7.09375 -2.625 L 1.859375 -2.625 L 1.859375 -0.984375 L 7.796875 -0.984375 Z M 7.796875 0 "/></g></g></g><g fill="#ffffff" fill-opacity="1"><g transform="translate(147.334334, 124.158948)"><g><path d="M 8.28125 0 L 7.609375 0 L 1.859375 -4.6875 L 1.859375 0 L 0.875 0 L 0.875 -6.21875 L 1.53125 -6.21875 L 7.296875 -1.53125 L 7.296875 -6.21875 L 8.28125 -6.21875 Z M 8.28125 0 "/></g></g><g transform="translate(156.484902, 124.158948)"><g><path d="M 6.578125 0 L 2.140625 0 C 1.722656 0 1.367188 -0.144531 1.078125 -0.4375 C 0.796875 -0.726562 0.65625 -1.078125 0.65625 -1.484375 L 1.640625 -1.484375 C 1.640625 -1.347656 1.6875 -1.226562 1.78125 -1.125 C 1.882812 -1.03125 2.003906 -0.984375 2.140625 -0.984375 L 6.578125 -0.984375 C 6.722656 -0.984375 6.84375 -1.03125 6.9375 -1.125 C 7.03125 -1.226562 7.078125 -1.347656 7.078125 -1.484375 L 7.078125 -2.125 C 7.078125 -2.257812 7.03125 -2.375 6.9375 -2.46875 C 6.84375 -2.570312 6.722656 -2.625 6.578125 -2.625 L 2.140625 -2.625 C 1.722656 -2.625 1.367188 -2.765625 1.078125 -3.046875 C 0.796875 -3.335938 0.65625 -3.691406 0.65625 -4.109375 L 0.65625 -4.75 C 0.65625 -5.15625 0.796875 -5.5 1.078125 -5.78125 C 1.367188 -6.070312 1.722656 -6.21875 2.140625 -6.21875 L 6.578125 -6.21875 C 6.992188 -6.21875 7.34375 -6.070312 7.625 -5.78125 C 7.914062 -5.5 8.0625 -5.15625 8.0625 -4.75 L 7.078125 -4.75 C 7.078125 -4.882812 7.03125 -5 6.9375 -5.09375 C 6.84375 -5.1875 6.722656 -5.234375 6.578125 -5.234375 L 2.140625 -5.234375 C 2.003906 -5.234375 1.882812 -5.1875 1.78125 -5.09375 C 1.6875 -5 1.640625 -4.882812 1.640625 -4.75 L 1.640625 -4.109375 C 1.640625 -3.960938 1.6875 -3.84375 1.78125 -3.75 C 1.882812 -3.65625 2.003906 -3.609375 2.140625 -3.609375 L 6.578125 -3.609375 C 6.992188 -3.609375 7.34375 -3.460938 7.625 -3.171875 C 7.914062 -2.878906 8.0625 -2.53125 8.0625 -2.125 L 8.0625 -1.484375 C 8.0625 -1.078125 7.914062 -0.726562 7.625 -0.4375 C 7.34375 -0.144531 6.992188 0 6.578125 0 Z M 6.578125 0 "/></g></g><g transform="translate(165.201588, 124.158948)"><g><path d="M 9.078125 0 L 7.875 0 L 6.96875 -1.34375 L 2.234375 -1.34375 L 1.328125 0 L 0.125 0 L 4.34375 -6.21875 L 4.859375 -6.21875 Z M 6.296875 -2.34375 L 4.609375 -4.84375 L 2.90625 -2.34375 Z M 6.296875 -2.34375 "/></g></g><g transform="translate(174.404222, 124.158948)"><g><path d="M 0.265625 -2.734375 L 0.265625 -3.484375 L 2.859375 -3.484375 L 2.859375 -2.734375 Z M 0.265625 -2.734375 "/></g></g><g transform="translate(177.523832, 124.158948)"><g><path d="M 9.4375 0 L 8.4375 0 L 8.4375 -4.203125 L 5.40625 0 L 4.890625 0 L 1.859375 -4.203125 L 1.859375 0 L 0.875 0 L 0.875 -6.21875 L 1.609375 -6.21875 L 5.15625 -1.34375 L 8.6875 -6.21875 L 9.4375 -6.21875 Z M 9.4375 0 "/></g></g></g></svg>